<?xml version="1.0" encoding="UTF-8" standalone="no"?>
<!-- Created with Inkscape (http://www.inkscape.org/) -->

<svg
   width="210mm"
   height="297mm"
   viewBox="0 0 210 297"
   version="1.1"
   id="svg5"
   sodipodi:docname="drawing.svg"
   inkscape:version="1.2.2 (732a01da63, 2022-12-09)"
   inkscape:export-filename="cat.svg"
   inkscape:export-xdpi="96"
   inkscape:export-ydpi="96"
   xmlns:inkscape="http://www.inkscape.org/namespaces/inkscape"
   xmlns:sodipodi="http://sodipodi.sourceforge.net/DTD/sodipodi-0.dtd"
   xmlns:xlink="http://www.w3.org/1999/xlink"
   xmlns="http://www.w3.org/2000/svg"
   xmlns:svg="http://www.w3.org/2000/svg">
  <sodipodi:namedview
     id="namedview7"
     pagecolor="#ffffff"
     bordercolor="#000000"
     borderopacity="0.25"
     inkscape:showpageshadow="2"
     inkscape:pageopacity="0.0"
     inkscape:pagecheckerboard="0"
     inkscape:deskcolor="#d1d1d1"
     inkscape:document-units="mm"
     showgrid="false"
     inkscape:zoom="0.63234635"
     inkscape:cx="479.95849"
     inkscape:cy="501.30755"
     inkscape:window-width="1858"
     inkscape:window-height="1057"
     inkscape:window-x="-8"
     inkscape:window-y="-8"
     inkscape:window-maximized="1"
     inkscape:current-layer="layer1" />
  <defs
     id="defs2">
    <linearGradient
       id="linearGradient22252"
       inkscape:swatch="solid">
      <stop
         style="stop-color:#f8f100;stop-opacity:1;"
         offset="0"
         id="stop22250" />
    </linearGradient>
    <radialGradient
       inkscape:collect="always"
       xlink:href="#linearGradient25173"
       id="radialGradient25175"
       cx="-251.80556"
       cy="24.83201"
       fx="-251.80556"
       fy="24.83201"
       r="150.19833"
       gradientTransform="matrix(0.31716296,0,0,-0.59135253,181.26238,160.3276)"
       gradientUnits="userSpaceOnUse" />
    <linearGradient
       inkscape:collect="always"
       id="linearGradient25173">
      <stop
         style="stop-color:#513324;stop-opacity:1;"
         offset="0"
         id="stop25169" />
      <stop
         style="stop-color:#68290d;stop-opacity:0;"
         offset="1"
         id="stop25171" />
    </linearGradient>
    <linearGradient
       inkscape:collect="always"
       xlink:href="#linearGradient31103"
       id="linearGradient31105"
       x1="-400.15356"
       y1="24.214241"
       x2="-103.33601"
       y2="24.214241"
       gradientUnits="userSpaceOnUse"
       gradientTransform="matrix(0.32225543,0,0,-0.36537498,182.52494,154.49141)" />
    <linearGradient
       inkscape:collect="always"
       id="linearGradient31103">
      <stop
         style="stop-color:#000000;stop-opacity:1;"
         offset="0"
         id="stop31099" />
      <stop
         style="stop-color:#000000;stop-opacity:0;"
         offset="1"
         id="stop31101" />
    </linearGradient>
    <filter
       inkscape:collect="always"
       style="color-interpolation-filters:sRGB"
       id="filter33792"
       x="-0.033876795"
       y="-0.020608936"
       width="1.0677499"
       height="1.0412066">
      <feGaussianBlur
         inkscape:collect="always"
         stdDeviation="3.9296445"
         id="feGaussianBlur33794" />
    </filter>
    <radialGradient
       inkscape:collect="always"
       xlink:href="#linearGradient2441"
       id="radialGradient21736"
       cx="273.41"
       cy="-280"
       fx="273.41"
       fy="-280"
       r="273.41"
       gradientTransform="matrix(1,0,0,1.024103,0,6.7488347)"
       gradientUnits="userSpaceOnUse" />
    <linearGradient
       inkscape:collect="always"
       id="linearGradient2441">
      <stop
         style="stop-color:#000000;stop-opacity:0.83018869;"
         offset="0.58199358"
         id="stop2437" />
      <stop
         style="stop-color:#000000;stop-opacity:0;"
         offset="1"
         id="stop2439" />
    </linearGradient>
    <radialGradient
       inkscape:collect="always"
       xlink:href="#linearGradient21709"
       id="radialGradient21711"
       cx="273.41"
       cy="-280"
       fx="273.41"
       fy="-280"
       r="273.41"
       gradientTransform="matrix(1,0,0,1.024103,0,6.7488347)"
       gradientUnits="userSpaceOnUse" />
    <linearGradient
       inkscape:collect="always"
       id="linearGradient21709">
      <stop
         style="stop-color:#4b2f11;stop-opacity:1;"
         offset="0"
         id="stop21705" />
      <stop
         style="stop-color:#4b2f11;stop-opacity:0;"
         offset="1"
         id="stop21707" />
    </linearGradient>
    <mask
       maskUnits="userSpaceOnUse"
       id="mask17091">
      <ellipse
         style="fill:url(#radialGradient17095);fill-opacity:1;stroke:#4b2f11;stroke-width:4.12392;stroke-dasharray:none"
         id="ellipse17093"
         cx="273.41"
         cy="-280"
         rx="271.34805"
         ry="277.93805" />
    </mask>
    <radialGradient
       inkscape:collect="always"
       xlink:href="#linearGradient8355"
       id="radialGradient17095"
       gradientUnits="userSpaceOnUse"
       gradientTransform="matrix(1.0638522,0,0,1.0898204,-8.923444,19.949848)"
       cx="265.38785"
       cy="-275.22873"
       fx="265.38785"
       fy="-275.22873"
       r="256.02698" />
    <linearGradient
       inkscape:collect="always"
       id="linearGradient8355">
      <stop
         style="stop-color:#ffffff;stop-opacity:1;"
         offset="0.27331188"
         id="stop8351" />
      <stop
         style="stop-color:#6b6b6b;stop-opacity:1;"
         offset="0.65594858"
         id="stop10537" />
      <stop
         style="stop-color:#000000;stop-opacity:1;"
         offset="1"
         id="stop8353" />
    </linearGradient>
    <radialGradient
       inkscape:collect="always"
       xlink:href="#linearGradient25173"
       id="radialGradient3984"
       gradientUnits="userSpaceOnUse"
       gradientTransform="matrix(0.98419741,0,0,1.6184812,-3.9178738,-15.973151)"
       cx="-251.80556"
       cy="24.83201"
       fx="-251.80556"
       fy="24.83201"
       r="150.19833" />
    <linearGradient
       inkscape:collect="always"
       xlink:href="#linearGradient31103"
       id="linearGradient4472"
       gradientUnits="userSpaceOnUse"
       x1="-400.15356"
       y1="24.214241"
       x2="-103.33601"
       y2="24.214241" />
  </defs>
  <g
     inkscape:label="Layer 1"
     inkscape:groupmode="layer"
     id="layer1"
     style="display:inline;opacity:1;fill:#000000;fill-opacity:1">
    <path
       style="opacity:1;fill:none;fill-opacity:0.697096;stroke:#4b2f11;stroke-width:0.900307;stroke-dasharray:none;stroke-opacity:1"
       d="m 105.06713,220.19264 c 19.29575,9.82731 23.78692,7.68375 37.36968,-28.75215 9.88219,-26.50909 0.67392,-22.12534 -5.69378,-34.61472"
       id="path25417"
       sodipodi:nodetypes="csc" />
    <rect
       style="fill:url(#radialGradient21736);fill-opacity:1;stroke:url(#radialGradient21711);stroke-width:0;stroke-dasharray:none"
       id="rect2412"
       width="581.51733"
       height="233.8437"
       x="0"
       y="-214.88736"
       transform="matrix(0.3094522,0,0,0.41138882,29.966692,245.22803)"
       mask="url(#mask17091)"
       ry="17.376591"
       inkscape:label="Sjena" />
    <path
       id="path3248-2"
       style="display:inline;fill:url(#radialGradient3984);fill-opacity:1;stroke:url(#linearGradient4472);stroke-width:1.16628;stroke-dasharray:none;stroke-opacity:1;paint-order:fill markers stroke;filter:url(#filter33792)"
       inkscape:connector-curvature="0"
       d="m -105.45928,-37.11921 c -3.63232,26.674773 -14.70349,50.223108 -18.1234,57.563798 -3.41917,7.340692 -7.8644,22.021242 -6.61638,42.65157 1.24874,20.6295 -7.0618,80.203692 -49.4634,118.447522 -42.40162,38.24716 -81.58398,50.14421 -86.85387,54.08694 -5.71309,4.27072 -28.72345,16.2259 -34.15576,19.08496 -5.43232,2.85989 -27.39531,6.027 -37.24713,7.44697 -9.85182,1.41998 -20.23943,-2.57836 -24.2253,-2.61407 -3.98586,-0.0349 -26.44789,7.76169 -29.86709,7.76169 -3.41917,0 -1.36781,-3.86298 -1.02605,-6.18146 0.34252,-2.31762 7.55352,-17.47648 7.55352,-17.47648 0,0 -7.89528,0.0913 -8.23705,-1.84015 -0.34176,-1.9315 9.3851,-10.19228 9.3851,-10.19228 0,0 -4.5981,-16.85119 -4.83698,-20.65523 -0.23961,-3.80488 4.34234,-16.67184 5.02661,-20.1487 0.68355,-3.47686 0,-11.59065 0,-11.59065 l 3.39712,-3.91614 c 0,0 5.8351,-4.58296 7.20291,-5.35523 1.36782,-0.77309 5.97695,0.10459 5.97695,0.10459 3.58308,-1.43991 15.22386,5.6907 21.37941,9.93983 6.15481,4.24996 14.7035,5.40835 17.17012,5.42996 2.46589,0.02 4.71424,-8.90765 4.61132,-11.82566 -0.10364,-2.91968 2.15502,-13.69404 2.83854,-17.17091 0.68428,-3.47686 -3.18396,-10.40318 -3.18396,-10.40318 -3.5265,1.95889 -8.44211,3.83559 -11.51953,4.99482 -3.07813,1.15923 -12.65213,8.88523 -15.38775,9.65832 -2.73565,0.7731 -5.12952,1.15924 -9.98485,2.67056 -4.85535,1.51215 -20.7907,5.4424 -24.21208,4.94084 -3.42064,-0.50073 -12.30816,-6.06686 -13.56131,-11.74925 -1.25244,-5.68405 5.69838,-11.3158 8.43401,-12.47501 2.73564,-1.15842 11.28432,1.15921 14.29338,0.80796 3.00978,-0.35126 4.93179,-3.14803 4.93179,-3.14803 10.67647,-0.40772 15.65383,-7.7044 21.80864,-13.88587 6.15481,-6.18145 35.22075,-24.33887 39.32421,-25.11196 4.10346,-0.77309 15.38557,2.47541 15.38557,2.47541 0,0 3.42138,-15.610594 4.78919,-24.88196 1.36781,-9.272186 -4.44521,-39.407212 -5.12876,-45.201709 -0.68429,-5.795324 -0.85479,-13.135184 -2.13736,-15.067512 -1.04589,-1.57609 -2.13736,-1.255557 -7.81149,-2.223797 -6.79497,-1.159232 -14.26543,-12.466719 -13.9876,-17.47898171 0.34177,-6.18145879 6.27388,-8.02742669 8.92059,-8.02742669 h 9.37333 c 4.10345,0 15.72953,1.8459679 15.72953,1.8459679 l 18.46592,-1.8459679 h 111.51281 c 11.13215,0 22.1754,-25.6417606 24.06947,-44.9002776 2.05136,-20.862009 -10.78157,-75.281936 -18.80768,-94.656706 -7.52263,-18.15741 -24.12533,-38.58595 -40.00776,-42.49628 -26.67206,-6.5676 -44.79548,13.13518 -58.13187,10.43142 -12.13471,-2.4613 -9.57475,-17.77127 -4.10347,-23.95357 5.04865,-5.70398 48.59171,-22.69221 77.27693,-12.3621 31.11731,11.20371 49.70743,52.25759 59.84148,85.38121 9.58942,31.31584 14.03465,62.994575 9.9312,93.128773 m -146.13822,57.657678 c -6.49658,-2.703766 -11.96786,-6.953725 -16.07129,-5.795326 -4.10347,1.159233 -5.81306,-2.317631 -9.23297,-1.158399 0,0 3.41991,11.589819 6.83321,18.206406 3.41255,6.617416 8.02463,28.168653 8.02463,28.168653 1.1804,-8.098842 8.0533,-20.876956 13.18205,-28.603781 5.12951,-7.726823 3.76169,-8.113786 -2.73563,-10.817553"
       inkscape:label="Backdrop blur"
       transform="matrix(0.32225544,0,0,-0.36537499,182.52494,154.49142)" />
    <path
       id="path3248"
       style="display:inline;fill:#c34d18;fill-opacity:1;stroke-width:0;stroke-dasharray:none"
       inkscape:connector-curvature="0"
       d="m 148.59877,167.97501 c -1.17359,-9.75808 -4.75064,-18.37246 -5.8556,-21.05781 -1.10472,-2.68534 -2.54096,-8.05574 -2.13773,-15.60266 0.40347,-7.54661 -2.28164,-29.33985 -15.98144,-43.330087 -13.6998,-13.99145 -26.35947,-18.343596 -28.06215,-19.78591 -1.845883,-1.5623 -9.280437,-5.93571 -11.035598,-6.9816 -1.755161,-1.046189 -8.851322,-2.204779 -12.034407,-2.724229 -3.183085,-0.51945 -6.539285,0.943213 -7.827101,0.956275 -1.287813,0.01275 -8.545219,-2.839359 -9.649943,-2.839359 -1.10472,0 -0.441934,1.413146 -0.33151,2.26128 0.110662,0.847827 2.440507,6.393193 2.440507,6.393193 0,0 -2.550931,-0.0334 -2.661359,0.673159 -0.110424,0.706574 3.032292,3.728502 3.032292,3.728502 0,0 -1.48563,6.164454 -1.56281,7.556036 -0.07741,1.391885 1.402991,6.098835 1.624077,7.370731 0.220852,1.271896 0,4.240057 0,4.240057 l 1.097599,1.432588 c 0,0 1.885298,1.676522 2.327232,1.95903 0.441938,0.282811 1.931128,-0.03827 1.931128,-0.03827 1.157681,0.526743 4.918772,-2.081754 6.907607,-3.636157 1.988596,-1.554704 4.750641,-1.978469 5.547602,-1.986364 0.796722,-0.0073 1.52315,3.258564 1.489903,4.32602 -0.03348,1.068066 0.696271,5.009511 0.917119,6.281407 0.221088,1.271892 -1.028729,3.805658 -1.028729,3.805658 -1.139395,-0.7166 -2.727612,-1.403124 -3.721912,-1.827189 -0.994535,-0.424068 -4.087855,-3.250365 -4.971728,-3.533176 -0.883876,-0.282815 -1.657324,-0.424069 -3.226067,-0.976932 -1.568746,-0.553171 -6.717392,-1.990925 -7.822828,-1.807448 -1.105197,0.183177 -3.97672,2.21936 -4.381611,4.298078 -0.404653,2.079319 1.841126,4.139507 2.725002,4.563567 0.883872,0.42376 3.645917,-0.42406 4.618134,-0.29557 0.972447,0.1285 1.59344,1.15161 1.59344,1.15161 3.449528,0.14915 5.057693,2.81839 7.046292,5.07968 1.988597,2.26128 11.37969,8.90356 12.705501,9.18637 1.32581,0.28282 4.971019,-0.90554 4.971019,-0.90554 0,0 1.105436,5.71062 1.547371,9.10224 0.441938,3.39192 -1.436235,14.41582 -1.657083,16.53554 -0.22109,2.12003 -0.276182,4.80507 -0.690571,5.51194 -0.337923,0.57656 -0.690571,0.45931 -2.523863,0.81351 -2.195432,0.42406 -4.609107,4.56053 -4.519342,6.3941 0.110424,2.26128 2.027068,2.93657 2.882207,2.93657 h 3.02849 c 1.325811,0 5.082151,-0.67529 5.082151,-0.67529 l 5.966271,0.67529 h 36.029358 c 3.59677,0 7.16479,9.38018 7.77676,16.42528 0.66278,7.63166 -3.48348,27.53938 -6.07669,34.627 -2.43054,6.64229 -7.7948,14.1154 -12.92635,15.54585 -8.61765,2.40254 -14.47326,-4.80506 -18.78219,-3.81598 -3.920677,0.90038 -3.093561,6.50103 -1.32581,8.76261 1.63119,2.08662 15.69979,8.3012 24.96788,4.52227 10.05388,-4.0985 16.06028,-19.1167 19.33455,-31.23387 3.09831,-11.45587 4.53454,-23.04448 3.20874,-34.06808 M 101.38587,146.8768 c -2.099018,0.98908 -3.866767,2.54379 -5.192576,2.12003 -1.325809,-0.42407 -1.87817,0.84783 -2.983136,0.42376 0,0 1.104966,-4.23975 2.20778,-6.6602 1.102585,-2.42076 2.592737,-10.30457 2.592737,-10.30457 0.38137,2.96269 2.601985,7.63714 4.259075,10.46374 1.65731,2.8266 1.21537,2.96816 -0.88388,3.95724"
       inkscape:label="Cat" />
    <path
       id="path33756"
       style="display:inline;fill:url(#radialGradient25175);fill-opacity:1;stroke:url(#linearGradient31105);stroke-width:0.400196;stroke-dasharray:none;stroke-opacity:1;paint-order:fill markers stroke"
       inkscape:connector-curvature="0"
       d="m 148.54012,168.05385 c -1.17054,-9.7463 -4.73828,-18.35027 -5.84037,-21.03237 -1.10185,-2.68211 -2.53435,-8.04601 -2.13217,-15.58382 0.40243,-7.5375 -2.2757,-29.30442 -15.93984,-43.277761 C 110.96359,74.185344 98.336861,69.838459 96.638602,68.397884 94.797535,66.83747 87.382318,62.469346 85.631726,61.424717 83.881131,60.379785 76.803439,59.222602 73.628636,58.70378 c -3.174802,-0.518825 -6.522267,0.942068 -7.806735,0.955117 -1.284465,0.01275 -8.522976,-2.835929 -9.624832,-2.835929 -1.101847,0 -0.440784,1.411437 -0.33065,2.258551 0.110378,0.8468 2.434163,6.385469 2.434163,6.385469 0,0 -2.544297,-0.03336 -2.654434,0.672344 -0.110134,0.705723 3.024399,3.724005 3.024399,3.724005 0,0 -1.481763,6.157003 -1.558743,7.546905 -0.07721,1.390207 1.399343,6.091473 1.619852,7.361831 0.220278,1.270358 0,4.234934 0,4.234934 l 1.09474,1.430858 c 0,0 1.880394,1.6745 2.321177,1.956668 0.440788,0.282467 1.926105,-0.03821 1.926105,-0.03821 1.154668,0.526107 4.905972,-2.079239 6.889631,-3.631766 1.983421,-1.552829 4.738284,-1.976075 5.533165,-1.98397 0.794647,-0.0073 1.51919,3.254632 1.486024,4.3208 -0.0334,1.066777 0.694466,5.00346 0.914734,6.27382 0.220514,1.270358 -1.026048,3.801063 -1.026048,3.801063 -1.136434,-0.71573 -2.720516,-1.401429 -3.712232,-1.824983 -0.991944,-0.423554 -4.077218,-3.24644 -4.958786,-3.528909 -0.881578,-0.282471 -1.653015,-0.423556 -3.217672,-0.975755 -1.564663,-0.552502 -6.699916,-1.988517 -7.802474,-1.805259 -1.10232,0.182954 -3.966373,2.216679 -4.370206,4.292881 -0.403606,2.07681 1.836334,4.134515 2.717906,4.558055 0.881574,0.42326 3.636433,-0.42354 4.606119,-0.29521 0.969918,0.12834 1.589295,1.15021 1.589295,1.15021 3.440551,0.14898 5.044532,2.815 7.027953,5.07355 1.983421,2.25855 11.35008,8.89282 12.672441,9.17529 1.322363,0.28246 4.958084,-0.90446 4.958084,-0.90446 0,0 1.102558,5.70372 1.543343,9.09125 0.440784,3.38782 -1.432493,14.39841 -1.652771,16.51557 -0.220517,2.11747 -0.275461,4.79927 -0.688776,5.50529 -0.337044,0.57586 -0.688776,0.45875 -2.517295,0.81252 -2.189717,0.42355 -4.597113,4.55503 -4.50758,6.38638 0.110137,2.25855 2.021791,2.93303 2.874708,2.93303 h 3.020607 c 1.322359,0 5.068928,-0.67448 5.068928,-0.67448 l 5.950736,0.67448 h 35.935618 c 3.58739,0 7.14614,9.36885 7.75651,16.40543 0.66106,7.62246 -3.47442,27.50614 -6.06087,34.58519 -2.42421,6.63427 -7.77452,14.09835 -12.89273,15.52709 -8.59521,2.39962 -14.43558,-4.79927 -18.7333,-3.81139 -3.910481,0.89931 -3.085514,6.49318 -1.32236,8.75203 1.62695,2.08409 15.65893,8.29118 24.90291,4.51681 10.02772,-4.09356 16.01848,-19.09361 19.28424,-31.19616 3.09024,-11.44202 4.52274,-23.01664 3.20038,-34.02693 m -47.09384,-21.06667 c -2.093553,0.98789 -3.856705,2.54072 -5.179058,2.11747 -1.322364,-0.42356 -1.873289,0.8468 -2.975379,0.42325 0,0 1.10209,-4.23463 2.202042,-6.65216 1.09971,-2.41784 2.585979,-10.29212 2.585979,-10.29212 0.380393,2.95911 2.595226,7.62792 4.247986,10.4511 1.65302,2.82319 1.21223,2.96457 -0.88157,3.95246"
       inkscape:label="Gradient i Outline"
       sodipodi:nodetypes="ccccccscsccscccccccccccccsccccccssccccccssccsccccccccccccccc" />
    <text
       xml:space="preserve"
       style="font-style:normal;font-variant:normal;font-weight:normal;font-stretch:normal;font-size:12.7px;font-family:Pristina;-inkscape-font-specification:Pristina;fill:none;stroke-width:0.343958;paint-order:fill markers stroke"
       id="text4535"><textPath
         xlink:href="#path25417"
         id="textPath4639"
         style="font-size:12.7px;fill:#7b70ac;fill-opacity:0.697096;stroke-width:0.343958">F E LIS</textPath></text>
  </g>
</svg>
